{
  "asset": {
    "version": "2.0"
  },
  "scene": 0,
  "scenes": [
    {
      "nodes": [0]
    }
  ],
  "nodes": [
    {
      "name": "root",
      "children": [1],
      "translation": [0.0, 0.0, 0.0]
    },
    {
      "name": "bone_0",
      "children": [2],
      "translation": [0.0, 1.0, 0.0]
    },
    {
      "name": "bone_1",
      "translation": [0.0, 1.0, 0.0]
    }
  ],
  "skins": [
    {
      "name": "slime_skeleton",
      "joints": [1, 2],
      "skeleton": 0
    }
  ],
  "animations": [
    {
      "name": "breath",
      "samplers": [
        {
          "input": 0,
          "output": 1,
          "interpolation": "LINEAR"
        },
        {
          "input": 0,
          "output": 2,
          "interpolation": "LINEAR"
        }
      ],
      "channels": [
        {
          "sampler": 0,
          "target": {
            "node": 1,
            "path": "translation"
          }
        },
        {
          "sampler": 1,
          "target": {
            "node": 2,
            "path": "translation"
          }
        }
      ]
    }
  ],
  "buffers": [
    {
      "uri": "data:application/octet-stream;base64,",
      "byteLength": 56
    }
  ],
  "bufferViews": [
    {
      "buffer": 0,
      "byteOffset": 0,
      "byteLength": 8
    },
    {
      "buffer": 0,
      "byteOffset": 8,
      "byteLength": 24
    },
    {
      "buffer": 0,
      "byteOffset": 32,
      "byteLength": 24
    }
  ],
  "accessors": [
    {
      "bufferView": 0,
      "componentType": 5126,
      "count": 2,
      "type": "SCALAR",
      "min": [0.0],
      "max": [1.0]
    },
    {
      "bufferView": 1,
      "componentType": 5126,
      "count": 2,
      "type": "VEC3"
    },
    {
      "bufferView": 2,
      "componentType": 5126,
      "count": 2,
      "type": "VEC3"
    }
  ]
}
